<svg viewBox="0 0 20 20" xmlns="http://www.w3.org/2000/svg">
<path fill-rule="evenodd" clip-rule="evenodd" d="M16.854 7.35463C16.9006 7.30819 16.9375 7.25301 16.9627 7.19227C16.9879 7.13152 17.0009 7.0664 17.0009 7.00063C17.0009 6.93486 16.9879 6.86974 16.9627 6.809C16.9375 6.74825 16.9006 6.69308 16.854 6.64663L12.854 2.64663C12.7601 2.55274 12.6328 2.5 12.5 2.5C12.3672 2.5 12.2399 2.55274 12.146 2.64663C12.0521 2.74052 11.9994 2.86786 11.9994 3.00063C11.9994 3.13341 12.0521 3.26074 12.146 3.35463L15.293 6.50063H5.5C4.83696 6.50063 4.20107 6.76402 3.73223 7.23286C3.26339 7.70171 3 8.33759 3 9.00063V17.0006C3 17.1332 3.05268 17.2604 3.14645 17.3542C3.24021 17.448 3.36739 17.5006 3.5 17.5006C3.63261 17.5006 3.75979 17.448 3.85355 17.3542C3.94732 17.2604 4 17.1332 4 17.0006V9.00063C4 8.60281 4.15804 8.22128 4.43934 7.93997C4.72064 7.65867 5.10218 7.50063 5.5 7.50063H15.293L12.146 10.6466C12.0521 10.7405 11.9994 10.8679 11.9994 11.0006C11.9994 11.1334 12.0521 11.2607 12.146 11.3546C12.2399 11.4485 12.3672 11.5013 12.5 11.5013C12.6328 11.5013 12.7601 11.4485 12.854 11.3546L16.854 7.35463Z"/>
<path d="M16.5009 7.00063L16.5004 7.00108L12.5004 11.0011L12.5 11.0013L12.4996 11.0011L12.4994 11.0006L12.4996 11.0002L15.6465 7.85424L16.5004 7.00063L15.6465 6.14702L12.4996 3.00108L12.4994 3.00063L12.4996 3.00018L12.5 3L12.5004 3.00018L16.5004 7.00019L16.5009 7.00063Z"/>
</svg>
