<svg viewBox="0 0 20 20" xmlns="http://www.w3.org/2000/svg">
<path fill-rule="evenodd" clip-rule="evenodd" d="M12.646 3.146C12.6924 3.09944 12.7476 3.06249 12.8084 3.03729C12.8691 3.01208 12.9342 2.99911 13 2.99911C13.0658 2.99911 13.1309 3.01208 13.1916 3.03729C13.2524 3.06249 13.3076 3.09944 13.354 3.146L17.354 7.146C17.4479 7.23989 17.5006 7.36722 17.5006 7.5C17.5006 7.63278 17.4479 7.76011 17.354 7.854C17.2601 7.94789 17.1328 8.00063 17 8.00063C16.8672 8.00063 16.7399 7.94789 16.646 7.854L13.5 4.707V14.5C13.5 15.163 13.2366 15.7989 12.7678 16.2678C12.2989 16.7366 11.663 17 11 17H3C2.86739 17 2.74021 16.9473 2.64645 16.8536C2.55268 16.7598 2.5 16.6326 2.5 16.5C2.5 16.3674 2.55268 16.2402 2.64645 16.1464C2.74021 16.0527 2.86739 16 3 16H11C11.3978 16 11.7794 15.842 12.0607 15.5607C12.342 15.2794 12.5 14.8978 12.5 14.5V4.707L9.354 7.854C9.26011 7.94789 9.13278 8.00063 9 8.00063C8.86722 8.00063 8.73989 7.94789 8.646 7.854C8.55211 7.76011 8.49937 7.63278 8.49937 7.5C8.49937 7.36722 8.55211 7.23989 8.646 7.146L12.646 3.146Z"/>
<path d="M13 3.49911L12.9996 3.49955L8.99955 7.49955L8.646 7.146L8.99955 7.49955L8.99937 7.5L8.99955 7.50045L9 7.50063L9.00045 7.50045L12.1464 4.3535L13 3.49962L13.8536 4.3535L16.9996 7.50045L17 7.50063L17.0004 7.50045L17.0006 7.5L17.0004 7.49955L13.0004 3.49955L13 3.49911Z"/>
</svg>
